<svg xmlns="http://www.w3.org/2000/svg" viewBox="0 0 1000 370"><defs><style>.cls-1{fill:none;}.cls-2{fill:#333;}.cls-3{fill:#f05c40;}.cls-4{fill:#1c1c1c;}.cls-5{fill:#666;}</style></defs><title>Asset 1</title><g id="Layer_2" data-name="Layer 2"><g id="Layer_1-2" data-name="Layer 1"><rect class="cls-1" width="1000" height="370"/><path class="cls-2" d="M88.54,162.51l0,0,0,0v15.54l13.51-7.8,109.08,63,13.24-7.64L88.54,147.22Zm0-46.2V131.6h0l0,0V147.2l13.51-7.8L237.9,217.83l13.24-7.65Z"/><polygon class="cls-2" points="88.54 193.41 117.52 210.15 88.54 226.88 88.54 193.41"/><path class="cls-3" d="M197.54,241.05l-109-62.95V66L75.3,58.31V234.57L21.77,265.42v15.3l109-62.93h0l53.55,30.91Zm-80-30.91-29,16.73V193.41l29,16.73Z"/><polygon class="cls-2" points="117.53 210.15 88.54 193.41 88.54 193.41 117.52 210.15 117.53 210.15"/><polygon class="cls-2" points="75.3 234.52 75.26 234.55 61.77 226.76 61.77 50.56 48.53 42.92 48.53 249.98 48.49 250 35.01 242.22 35.01 35.11 21.77 27.46 21.77 265.42 75.3 234.57 75.3 234.52"/><polygon class="cls-2" points="35.01 257.79 35.01 257.79 35.01 257.79 35.01 257.79"/><polygon class="cls-2" points="61.77 242.33 61.77 242.32 61.78 242.32 61.77 242.33"/><polygon class="cls-2" points="184.31 248.69 130.76 217.78 130.76 217.79 130.76 233.41 21.77 296.34 21.77 311.63 157.53 233.25 157.53 248.86 21.77 327.25 21.77 342.54 184.31 248.69"/><path class="cls-4" d="M315.34,212.33a11.54,11.54,0,0,1-.58,3.87,8.56,8.56,0,0,1-1.63,2.83,8.29,8.29,0,0,1-2.5,1.92,15.09,15.09,0,0,1-3.21,1.17,24.05,24.05,0,0,1-3.76.6q-2,.17-4.15.17H277.43V184.64H299q1.64,0,3.28.14a20.29,20.29,0,0,1,3.16.52,12.8,12.8,0,0,1,2.81,1,7.7,7.7,0,0,1,2.25,1.75,7.88,7.88,0,0,1,1.5,2.62,10.85,10.85,0,0,1,.54,3.62,10.13,10.13,0,0,1-.46,3.23,6.17,6.17,0,0,1-1.39,2.34,7.21,7.21,0,0,1-2.38,1.6,15.85,15.85,0,0,1-3.39,1,16.75,16.75,0,0,1,4.76.95,9,9,0,0,1,3.23,2,7.59,7.59,0,0,1,1.84,3A12.24,12.24,0,0,1,315.34,212.33Zm-6-17.92a11.72,11.72,0,0,0-.11-1.61,4.62,4.62,0,0,0-.5-1.54,4.83,4.83,0,0,0-1.13-1.37,6.35,6.35,0,0,0-2-1.09,16.25,16.25,0,0,0-3.16-.72,33.17,33.17,0,0,0-4.52-.26H280.91v13.3h16.95a26.75,26.75,0,0,0,6-.54,9.39,9.39,0,0,0,3.47-1.46,4.24,4.24,0,0,0,1.59-2.13A8.69,8.69,0,0,0,309.3,194.41Zm2.39,17.85a8.32,8.32,0,0,0-.75-3.7,6.1,6.1,0,0,0-2.31-2.5,11.6,11.6,0,0,0-4-1.43,32.14,32.14,0,0,0-5.82-.46h-17.9v15.53h18.37a35.77,35.77,0,0,0,5.86-.4A10.72,10.72,0,0,0,309,218a5.16,5.16,0,0,0,2.09-2.32A8.43,8.43,0,0,0,311.69,212.26Z"/><path class="cls-4" d="M371,203.79a19.75,19.75,0,0,1-1.86,8.89,17.13,17.13,0,0,1-5.12,6.18,22.08,22.08,0,0,1-7.68,3.6,37.23,37.23,0,0,1-9.54,1.17,37.68,37.68,0,0,1-9.6-1.17,22.36,22.36,0,0,1-7.73-3.6,17,17,0,0,1-5.15-6.18,19.74,19.74,0,0,1-1.86-8.89,21.05,21.05,0,0,1,.86-6.22,17.66,17.66,0,0,1,2.42-5,16.41,16.41,0,0,1,3.77-3.83,22.1,22.1,0,0,1,4.92-2.69,28.42,28.42,0,0,1,5.83-1.59,40,40,0,0,1,6.54-.52,37.23,37.23,0,0,1,9.54,1.17,22.09,22.09,0,0,1,7.68,3.6,17.13,17.13,0,0,1,5.12,6.18A19.75,19.75,0,0,1,371,203.79Zm-3.56,0a18.25,18.25,0,0,0-1.32-7.18,13.53,13.53,0,0,0-3.91-5.25,17.6,17.6,0,0,0-6.45-3.23,36.9,36.9,0,0,0-17.94,0,18.06,18.06,0,0,0-6.5,3.24,13.53,13.53,0,0,0-4,5.26,19.85,19.85,0,0,0,0,14.32,13.54,13.54,0,0,0,4,5.25,17.87,17.87,0,0,0,6.5,3.23,37.12,37.12,0,0,0,17.94,0,17.6,17.6,0,0,0,6.45-3.23,13.53,13.53,0,0,0,3.91-5.25A18.25,18.25,0,0,0,367.44,203.79Z"/><path class="cls-4" d="M415.68,222.88l-5.26-10.1h-26l-5.26,10.1h-3.81l20-38.24h4.09l20,38.24ZM397.45,188l-11.3,21.6h22.57Z"/><path class="cls-4" d="M430.48,206.51v16.37H427V184.64h19a35.56,35.56,0,0,1,7.49.68,14.3,14.3,0,0,1,5.11,2.06,8.22,8.22,0,0,1,2.91,3.44,11.73,11.73,0,0,1,.92,4.81,10,10,0,0,1-2.25,6.86q-2.25,2.57-7.26,3.52L466,222.88h-4.37L449.29,206.4q-.78.06-1.59.08l-1.67,0Zm28.42-10.88a8,8,0,0,0-.86-4,5.65,5.65,0,0,0-2.81-2.35,17.23,17.23,0,0,0-5.11-1.13q-3.16-.29-7.76-.29H430.48v15.36h11.76q4.6,0,7.77-.26a17.44,17.44,0,0,0,5.15-1.09A5.7,5.7,0,0,0,458,199.6,7.78,7.78,0,0,0,458.89,195.63Z"/><path class="cls-4" d="M516.23,203.73a25.28,25.28,0,0,1-.77,6.53,17,17,0,0,1-2.16,5,14,14,0,0,1-3.38,3.59,17.44,17.44,0,0,1-4.42,2.37,25.93,25.93,0,0,1-5.29,1.29,42.9,42.9,0,0,1-6,.4H474.48V184.64h19.68a39.35,39.35,0,0,1,8.74.92,18.35,18.35,0,0,1,7,3.13,15,15,0,0,1,4.65,5.89A22,22,0,0,1,516.23,203.73Zm-3.56,0a22.38,22.38,0,0,0-.61-5.52,14,14,0,0,0-1.75-4.16,11,11,0,0,0-2.79-3,14.63,14.63,0,0,0-3.71-1.94,21.12,21.12,0,0,0-4.48-1,41,41,0,0,0-5.15-.31H478v31.9h16.21a35.34,35.34,0,0,0,7.49-.74,14.86,14.86,0,0,0,5.83-2.56,12.11,12.11,0,0,0,3.8-4.9A19.21,19.21,0,0,0,512.67,203.74Z"/><path class="cls-4" d="M529.84,206.51v16.37h-3.48V184.64h19a35.56,35.56,0,0,1,7.49.68,14.3,14.3,0,0,1,5.11,2.06,8.22,8.22,0,0,1,2.91,3.44,11.73,11.73,0,0,1,.92,4.81,10,10,0,0,1-2.25,6.86q-2.25,2.57-7.26,3.52l13.05,16.87H561L548.65,206.4q-.78.06-1.59.08l-1.67,0Zm28.42-10.88a8,8,0,0,0-.86-4,5.65,5.65,0,0,0-2.81-2.35,17.23,17.23,0,0,0-5.11-1.13q-3.16-.29-7.76-.29H529.84v15.36h11.76q4.6,0,7.77-.26a17.44,17.44,0,0,0,5.15-1.09,5.7,5.7,0,0,0,2.86-2.31A7.78,7.78,0,0,0,558.25,195.63Z"/><path class="cls-4" d="M619.15,203.79a19.75,19.75,0,0,1-1.86,8.89,17.13,17.13,0,0,1-5.12,6.18,22.08,22.08,0,0,1-7.68,3.6,37.23,37.23,0,0,1-9.54,1.17,37.68,37.68,0,0,1-9.6-1.17,22.36,22.36,0,0,1-7.73-3.6,17,17,0,0,1-5.15-6.18,19.74,19.74,0,0,1-1.86-8.89,21.05,21.05,0,0,1,.86-6.22,17.66,17.66,0,0,1,2.42-5,16.41,16.41,0,0,1,3.77-3.83,22.1,22.1,0,0,1,4.92-2.69,28.42,28.42,0,0,1,5.83-1.59,40,40,0,0,1,6.54-.52,37.23,37.23,0,0,1,9.54,1.17,22.09,22.09,0,0,1,7.68,3.6,17.13,17.13,0,0,1,5.12,6.18A19.75,19.75,0,0,1,619.15,203.79Zm-3.56,0a18.25,18.25,0,0,0-1.32-7.18,13.53,13.53,0,0,0-3.91-5.25,17.6,17.6,0,0,0-6.45-3.23,36.9,36.9,0,0,0-17.94,0,18.06,18.06,0,0,0-6.5,3.24,13.53,13.53,0,0,0-4,5.26,19.85,19.85,0,0,0,0,14.32,13.54,13.54,0,0,0,4,5.25,17.87,17.87,0,0,0,6.5,3.23,37.12,37.12,0,0,0,17.94,0,17.6,17.6,0,0,0,6.45-3.23,13.53,13.53,0,0,0,3.91-5.25A18.25,18.25,0,0,0,615.59,203.79Z"/><path class="cls-4" d="M675.23,203.79a19.75,19.75,0,0,1-1.86,8.89,17.13,17.13,0,0,1-5.12,6.18,22.08,22.08,0,0,1-7.68,3.6,37.23,37.23,0,0,1-9.54,1.17,37.68,37.68,0,0,1-9.6-1.17,22.36,22.36,0,0,1-7.73-3.6,17,17,0,0,1-5.15-6.18,19.74,19.74,0,0,1-1.86-8.89,21.05,21.05,0,0,1,.86-6.22,17.66,17.66,0,0,1,2.42-5,16.41,16.41,0,0,1,3.77-3.83,22.1,22.1,0,0,1,4.92-2.69,28.42,28.42,0,0,1,5.83-1.59,40,40,0,0,1,6.54-.52,37.23,37.23,0,0,1,9.54,1.17,22.09,22.09,0,0,1,7.68,3.6,17.13,17.13,0,0,1,5.12,6.18A19.75,19.75,0,0,1,675.23,203.79Zm-3.56,0a18.25,18.25,0,0,0-1.32-7.18,13.53,13.53,0,0,0-3.91-5.25,17.6,17.6,0,0,0-6.45-3.23,36.9,36.9,0,0,0-17.94,0,18.06,18.06,0,0,0-6.5,3.24,13.53,13.53,0,0,0-4,5.26,19.85,19.85,0,0,0,0,14.32,13.54,13.54,0,0,0,4,5.25,17.87,17.87,0,0,0,6.5,3.23,37.12,37.12,0,0,0,17.94,0,17.6,17.6,0,0,0,6.45-3.23,13.53,13.53,0,0,0,3.91-5.25A18.25,18.25,0,0,0,671.67,203.79Z"/><path class="cls-4" d="M734.07,222.88V190.34l-21,32.54H710l-21-32.67v32.67h-3.48V184.64h3.73l22.43,34.65,22.18-34.65h3.7v38.24Z"/><path class="cls-3" d="M746.79,222.88v-6h4.84v6Z"/><path class="cls-5" d="M809.55,222.88V190.34l-21,32.54h-3.09l-21-32.67v32.67h-3.48V184.64h3.73l22.43,34.65,22.18-34.65H813v38.24Z"/><path class="cls-5" d="M825.86,222.88V184.64h31.87v3.26H829.64v13.17h26.66v3.17H829.64v15.39h28.5v3.26Z"/><path class="cls-5" d="M910.64,203.73a25.28,25.28,0,0,1-.77,6.53,17,17,0,0,1-2.16,5,14,14,0,0,1-3.38,3.59,17.44,17.44,0,0,1-4.42,2.37,25.93,25.93,0,0,1-5.29,1.29,42.9,42.9,0,0,1-6,.4H868.89V184.64h19.68a39.35,39.35,0,0,1,8.74.92,18.35,18.35,0,0,1,7,3.13,15,15,0,0,1,4.65,5.89A22,22,0,0,1,910.64,203.73Zm-3.56,0a22.38,22.38,0,0,0-.61-5.52,14,14,0,0,0-1.75-4.16,11,11,0,0,0-2.79-3,14.63,14.63,0,0,0-3.71-1.94,21.12,21.12,0,0,0-4.48-1,41,41,0,0,0-5.15-.31H872.37v31.9h16.21a35.34,35.34,0,0,0,7.49-.74,14.86,14.86,0,0,0,5.83-2.56,12.11,12.11,0,0,0,3.8-4.9A19.21,19.21,0,0,0,907.07,203.74Z"/><path class="cls-5" d="M920.77,222.88V184.64h3.48v38.24Z"/><path class="cls-5" d="M972.16,222.88l-5.26-10.1h-26l-5.26,10.1h-3.81l20-38.24H956l20,38.24ZM953.93,188l-11.3,21.6H965.2Z"/></g></g></svg>