<svg xmlns="http://www.w3.org/2000/svg" viewBox="0 0 1000 800"><defs><style>.cls-1{fill:none;}.cls-2{fill:#333;}.cls-3{fill:#f05c40;}.cls-4{fill:#5c5c5c;}</style></defs><title>Asset 2</title><g id="Layer_2" data-name="Layer 2"><g id="Layer_1-2" data-name="Layer 1"><rect class="cls-1" width="1000" height="800"/><path class="cls-2" d="M468.56,271.6l.05,0-.05.09v29.06l25.27-14.59L697.82,404l24.76-14.3L468.56,243Zm0-86.39V213.8l0,0,0,.07V243l25.27-14.59,254,146.67,24.76-14.3Z"/><polygon class="cls-2" points="468.56 329.4 522.76 360.69 468.56 391.98 468.56 329.4"/><path class="cls-3" d="M672.39,418.49,468.56,300.77V91L443.8,76.75V406.36L343.69,464v28.62L547.52,375v0l100.14,57.8Zm-149.63-57.8L468.56,392V329.4l54.21,31.29Z"/><polygon class="cls-2" points="522.77 360.68 468.56 329.4 468.56 329.4 522.76 360.69 522.77 360.68"/><polygon class="cls-2" points="443.8 406.27 443.72 406.32 418.5 391.76 418.5 62.26 393.74 47.96 393.74 435.17 393.67 435.22 368.45 420.66 368.45 33.36 343.69 19.06 343.69 464.05 443.8 406.36 443.8 406.27"/><polygon class="cls-2" points="368.45 449.77 368.45 449.77 368.45 449.77 368.45 449.77"/><polygon class="cls-2" points="418.5 420.88 418.5 420.86 418.53 420.86 418.5 420.88"/><polygon class="cls-2" points="647.66 432.76 547.52 374.97 547.52 374.98 547.52 404.19 343.69 521.87 343.69 550.46 597.57 403.88 597.57 433.09 343.69 579.67 343.69 608.26 647.66 432.76"/><path class="cls-2" d="M92.67,693.11a15.19,15.19,0,0,1-.77,5.09,11.23,11.23,0,0,1-2.14,3.72,10.86,10.86,0,0,1-3.3,2.53A20,20,0,0,1,82.23,706a31.66,31.66,0,0,1-4.94.79q-2.64.22-5.46.22h-29V656.67H71.17q2.16,0,4.32.18a26.78,26.78,0,0,1,4.16.68,16.92,16.92,0,0,1,3.7,1.37,10.13,10.13,0,0,1,3,2.31,10.33,10.33,0,0,1,2,3.44,14.25,14.25,0,0,1,.71,4.76,13.36,13.36,0,0,1-.6,4.25,8.15,8.15,0,0,1-1.83,3.08,9.48,9.48,0,0,1-3.13,2.11,20.81,20.81,0,0,1-4.47,1.3,22,22,0,0,1,6.26,1.25A11.85,11.85,0,0,1,89.48,684,10,10,0,0,1,91.9,688,16.1,16.1,0,0,1,92.67,693.11Zm-7.95-23.58a15.48,15.48,0,0,0-.15-2.12,6.07,6.07,0,0,0-.66-2,6.34,6.34,0,0,0-1.48-1.8,8.32,8.32,0,0,0-2.65-1.44,21.35,21.35,0,0,0-4.16-.95,43.6,43.6,0,0,0-6-.35H47.37v17.5h22.3a35.25,35.25,0,0,0,7.91-.71,12.36,12.36,0,0,0,4.56-1.92,5.58,5.58,0,0,0,2.09-2.81A11.47,11.47,0,0,0,84.72,669.53ZM87.87,693a10.93,10.93,0,0,0-1-4.86,8,8,0,0,0-3-3.29A15.25,15.25,0,0,0,78.57,683a42.16,42.16,0,0,0-7.65-.6H47.37v20.43H71.54a47.1,47.1,0,0,0,7.71-.53,14.11,14.11,0,0,0,5.05-1.72A6.79,6.79,0,0,0,87,697.52,11.07,11.07,0,0,0,87.87,693Z"/><path class="cls-2" d="M165.91,681.87a26,26,0,0,1-2.45,11.7,22.53,22.53,0,0,1-6.73,8.13,29,29,0,0,1-10.1,4.74A49,49,0,0,1,134.07,708a49.57,49.57,0,0,1-12.63-1.54,29.41,29.41,0,0,1-10.18-4.74,22.38,22.38,0,0,1-6.77-8.13,26,26,0,0,1-2.45-11.7,27.71,27.71,0,0,1,1.13-8.18,23.26,23.26,0,0,1,3.18-6.59,21.57,21.57,0,0,1,5-5,29,29,0,0,1,6.48-3.53,37.47,37.47,0,0,1,7.67-2.09,52.76,52.76,0,0,1,8.6-.68,49,49,0,0,1,12.55,1.54,29,29,0,0,1,10.1,4.74,22.55,22.55,0,0,1,6.73,8.13A26,26,0,0,1,165.91,681.87Zm-4.69,0a24,24,0,0,0-1.74-9.45,17.81,17.81,0,0,0-5.15-6.9,23.2,23.2,0,0,0-8.48-4.25,43.17,43.17,0,0,0-11.78-1.45,43,43,0,0,0-11.82,1.46,23.74,23.74,0,0,0-8.56,4.27,17.79,17.79,0,0,0-5.2,6.92,26.11,26.11,0,0,0,0,18.84,17.82,17.82,0,0,0,5.2,6.9,23.55,23.55,0,0,0,8.56,4.25,43.53,43.53,0,0,0,11.82,1.45,43.13,43.13,0,0,0,11.78-1.45,23.2,23.2,0,0,0,8.48-4.25,17.81,17.81,0,0,0,5.15-6.9A24,24,0,0,0,161.22,681.87Z"/><path class="cls-2" d="M224.71,707l-6.92-13.29H183.62L176.7,707h-5L198,656.67h5.38L229.72,707Zm-24-45.89-14.87,28.42h29.7Z"/><path class="cls-2" d="M244.17,685.46V707h-4.58V656.67h25a46.72,46.72,0,0,1,9.85.9,18.78,18.78,0,0,1,6.72,2.71A10.8,10.8,0,0,1,285,664.8a15.44,15.44,0,0,1,1.21,6.34,13.21,13.21,0,0,1-3,9q-3,3.39-9.56,4.63L290.9,707h-5.75l-16.22-21.68q-1,.07-2.09.11t-2.2,0Zm37.39-14.32a10.5,10.5,0,0,0-1.14-5.22,7.43,7.43,0,0,0-3.7-3.09,22.7,22.7,0,0,0-6.73-1.48q-4.16-.38-10.21-.38H244.17v20.21h15.47q6,0,10.23-.35a23,23,0,0,0,6.78-1.43,7.5,7.5,0,0,0,3.76-3A10.23,10.23,0,0,0,281.56,671.14Z"/><path class="cls-2" d="M357,681.8a33.22,33.22,0,0,1-1,8.59,22.35,22.35,0,0,1-2.84,6.54,18.45,18.45,0,0,1-4.45,4.72,22.92,22.92,0,0,1-5.82,3.11,34,34,0,0,1-7,1.7A56.26,56.26,0,0,1,328,707h-26V656.67H328a51.84,51.84,0,0,1,11.5,1.21,24.16,24.16,0,0,1,9.21,4.12,19.68,19.68,0,0,1,6.12,7.75A28.91,28.91,0,0,1,357,681.8Zm-4.69,0a29.45,29.45,0,0,0-.81-7.26,18.51,18.51,0,0,0-2.31-5.48,14.52,14.52,0,0,0-3.67-3.9,19.22,19.22,0,0,0-4.87-2.55,27.75,27.75,0,0,0-5.9-1.37,54.15,54.15,0,0,0-6.78-.4H306.65v42H328a46.51,46.51,0,0,0,9.86-1,19.56,19.56,0,0,0,7.68-3.37,15.93,15.93,0,0,0,5-6.45A25.26,25.26,0,0,0,352.31,681.81Z"/><path class="cls-2" d="M374.91,685.46V707h-4.58V656.67h25a46.72,46.72,0,0,1,9.85.9,18.78,18.78,0,0,1,6.72,2.71,10.8,10.8,0,0,1,3.83,4.52,15.44,15.44,0,0,1,1.21,6.34,13.21,13.21,0,0,1-3,9q-3,3.39-9.56,4.63L421.64,707h-5.75l-16.22-21.68q-1,.07-2.09.11t-2.2,0Zm37.39-14.32a10.49,10.49,0,0,0-1.14-5.22,7.43,7.43,0,0,0-3.7-3.09,22.7,22.7,0,0,0-6.73-1.48q-4.16-.38-10.21-.38H374.91v20.21h15.47q6,0,10.23-.35a23,23,0,0,0,6.78-1.43,7.5,7.5,0,0,0,3.76-3A10.23,10.23,0,0,0,412.3,671.14Z"/><path class="cls-2" d="M492.43,681.87a26,26,0,0,1-2.45,11.7,22.52,22.52,0,0,1-6.73,8.13,29,29,0,0,1-10.1,4.74A49,49,0,0,1,460.58,708,49.58,49.58,0,0,1,448,706.44a29.41,29.41,0,0,1-10.17-4.74,22.37,22.37,0,0,1-6.77-8.13,26,26,0,0,1-2.45-11.7,27.72,27.72,0,0,1,1.13-8.18,23.27,23.27,0,0,1,3.18-6.59,21.57,21.57,0,0,1,5-5,29,29,0,0,1,6.48-3.53,37.47,37.47,0,0,1,7.67-2.09,52.77,52.77,0,0,1,8.6-.68,49,49,0,0,1,12.55,1.54,29,29,0,0,1,10.1,4.74,22.54,22.54,0,0,1,6.73,8.13A26,26,0,0,1,492.43,681.87Zm-4.69,0a24,24,0,0,0-1.74-9.45,17.81,17.81,0,0,0-5.15-6.9,23.21,23.21,0,0,0-8.48-4.25,48.56,48.56,0,0,0-23.6,0,23.75,23.75,0,0,0-8.56,4.27,17.78,17.78,0,0,0-5.2,6.92,26.1,26.1,0,0,0,0,18.84,17.81,17.81,0,0,0,5.2,6.9,23.55,23.55,0,0,0,8.56,4.25,48.86,48.86,0,0,0,23.6,0,23.21,23.21,0,0,0,8.48-4.25,17.81,17.81,0,0,0,5.15-6.9A24,24,0,0,0,487.74,681.87Z"/><path class="cls-2" d="M566.22,681.87a26,26,0,0,1-2.45,11.7A22.52,22.52,0,0,1,557,701.7a29,29,0,0,1-10.1,4.74A49,49,0,0,1,534.37,708a49.58,49.58,0,0,1-12.63-1.54,29.41,29.41,0,0,1-10.17-4.74,22.37,22.37,0,0,1-6.77-8.13,26,26,0,0,1-2.45-11.7,27.72,27.72,0,0,1,1.13-8.18,23.27,23.27,0,0,1,3.18-6.59,21.57,21.57,0,0,1,5-5,29,29,0,0,1,6.48-3.53,37.47,37.47,0,0,1,7.67-2.09,52.77,52.77,0,0,1,8.6-.68,49,49,0,0,1,12.55,1.54A29,29,0,0,1,557,662a22.54,22.54,0,0,1,6.73,8.13A26,26,0,0,1,566.22,681.87Zm-4.69,0a24,24,0,0,0-1.74-9.45,17.81,17.81,0,0,0-5.15-6.9,23.21,23.21,0,0,0-8.48-4.25,48.56,48.56,0,0,0-23.6,0,23.75,23.75,0,0,0-8.56,4.27,17.78,17.78,0,0,0-5.2,6.92,26.1,26.1,0,0,0,0,18.84,17.81,17.81,0,0,0,5.2,6.9,23.55,23.55,0,0,0,8.56,4.25,48.86,48.86,0,0,0,23.6,0,23.21,23.21,0,0,0,8.48-4.25,17.81,17.81,0,0,0,5.15-6.9A24,24,0,0,0,561.53,681.87Z"/><path class="cls-2" d="M643.63,707V664.18L616,707h-4.06l-27.69-43v43h-4.58V656.67h4.91l29.52,45.59,29.19-45.59h4.87V707Z"/><path class="cls-3" d="M660.37,707V699h6.37V707Z"/><path class="cls-4" d="M743,707V664.18L715.3,707h-4.06l-27.69-43v43H679V656.67h4.91l29.52,45.59,29.19-45.59h4.87V707Z"/><path class="cls-4" d="M764.41,707V656.67h41.93V661h-37v17.32h35.08v4.17H769.39v20.25h37.5V707Z"/><path class="cls-4" d="M876,681.8a33.22,33.22,0,0,1-1,8.59,22.35,22.35,0,0,1-2.84,6.54,18.45,18.45,0,0,1-4.45,4.72,22.92,22.92,0,0,1-5.82,3.11,34,34,0,0,1-7,1.7A56.27,56.27,0,0,1,847,707H821V656.67h25.89a51.83,51.83,0,0,1,11.5,1.21,24.16,24.16,0,0,1,9.21,4.12,19.68,19.68,0,0,1,6.12,7.75A28.91,28.91,0,0,1,876,681.8Zm-4.69,0a29.45,29.45,0,0,0-.81-7.26,18.51,18.51,0,0,0-2.31-5.48,14.52,14.52,0,0,0-3.67-3.9,19.22,19.22,0,0,0-4.87-2.55,27.75,27.75,0,0,0-5.9-1.37,54.14,54.14,0,0,0-6.78-.4H825.6v42h21.33a46.51,46.51,0,0,0,9.86-1,19.56,19.56,0,0,0,7.68-3.37,15.93,15.93,0,0,0,5-6.45A25.26,25.26,0,0,0,871.27,681.81Z"/><path class="cls-4" d="M889.29,707V656.67h4.58V707Z"/><path class="cls-4" d="M956.91,707,950,693.7H915.82L908.9,707h-5l26.33-50.32h5.38L961.93,707Zm-24-45.89-14.87,28.42h29.7Z"/></g></g></svg>