<?xml version="1.0" encoding="utf-8"?>
<!-- Generator: Adobe Illustrator 16.0.0, SVG Export Plug-In . SVG Version: 6.00 Build 0)  -->
<!DOCTYPE svg PUBLIC "-//W3C//DTD SVG 1.1//EN" "http://www.w3.org/Graphics/SVG/1.1/DTD/svg11.dtd">
<svg version="1.1" id="Layer_1" xmlns="http://www.w3.org/2000/svg" xmlns:xlink="http://www.w3.org/1999/xlink" x="0px" y="0px"
	 width="300px" height="126.44px" viewBox="-2 282.78 612 226.44" enable-background="new -2 282.78 612 226.44"
	 xml:space="preserve">
<title>Asset 1</title>
<g id="Layer_2">
	<g id="Layer_1-2">
		<rect x="-2" y="282.78" fill="none" width="612" height="226.44"/>
		<path fill="#333333" d="M54.187,382.236L54.187,382.236L54.187,382.236v9.51l8.268-4.773l66.757,38.556l8.103-4.676
			l-83.128-47.975V382.236z M54.187,353.962v9.357l0,0l0,0v9.547l8.268-4.773l83.14,47.999l8.103-4.682L54.187,353.962z"/>
		<polygon fill="none" points="54.187,401.146 71.922,411.392 54.187,421.631 		"/>
		<path fill="#F05C40" d="M120.895,430.303l-66.708-38.525v-68.605l-8.103-4.706v107.871l-32.76,18.88v9.364l66.708-38.514l0,0
			l32.772,18.917L120.895,430.303z M71.935,411.386l-17.748,10.238v-20.478L71.935,411.386z"/>
		<polygon fill="#333333" points="71.928,411.392 54.187,401.146 54.187,401.146 71.922,411.392 		"/>
		<polygon fill="#333333" points="46.083,426.307 46.059,426.324 37.803,421.557 37.803,313.723 29.7,309.047 29.7,435.768 
			29.676,435.78 21.426,431.019 21.426,304.268 13.323,299.585 13.323,445.217 46.083,426.337 		"/>
		<polygon fill="#FFFFFF" points="21.426,440.548 21.426,440.548 21.426,440.548 		"/>
		<polygon fill="#FFFFFF" points="37.803,431.086 37.803,431.08 37.81,431.08 		"/>
		<polygon fill="#333333" points="112.798,434.979 80.025,416.062 80.025,416.067 80.025,425.627 13.323,464.14 13.323,473.498 
			96.408,425.529 96.408,435.082 13.323,483.057 13.323,492.414 		"/>
		<path fill="#1C1C1C" d="M192.988,412.726c0.017,0.805-0.103,1.605-0.355,2.369c-0.218,0.636-0.557,1.224-0.998,1.731
			c-0.43,0.486-0.95,0.885-1.53,1.175c-0.625,0.313-1.285,0.553-1.964,0.717c-0.756,0.183-1.526,0.306-2.301,0.367
			c-0.816,0.069-1.663,0.104-2.54,0.104h-13.513V395.78h13.201c0.669,0,1.338,0.028,2.007,0.085
			c0.652,0.055,1.299,0.161,1.934,0.318c0.595,0.137,1.172,0.342,1.72,0.612c0.522,0.268,0.989,0.631,1.377,1.07
			c0.407,0.471,0.718,1.016,0.918,1.604c0.235,0.715,0.347,1.464,0.331,2.216c0.014,0.67-0.082,1.337-0.281,1.977
			c-0.174,0.535-0.464,1.024-0.851,1.433c-0.415,0.42-0.91,0.753-1.457,0.979c-0.667,0.281-1.362,0.486-2.075,0.612
			c0.994,0.052,1.976,0.247,2.913,0.581c0.739,0.263,1.413,0.681,1.977,1.225c0.514,0.515,0.9,1.144,1.126,1.836
			C192.877,411.102,192.999,411.912,192.988,412.726z M189.316,401.759c0-0.329-0.022-0.659-0.067-0.985
			c-0.045-0.329-0.149-0.648-0.306-0.942c-0.177-0.319-0.411-0.604-0.692-0.839c-0.364-0.294-0.779-0.52-1.224-0.667
			c-0.628-0.211-1.276-0.358-1.934-0.44c-0.917-0.116-1.842-0.169-2.766-0.159h-10.41v8.14h10.374
			c1.232,0.028,2.464-0.082,3.672-0.33c0.761-0.151,1.483-0.455,2.124-0.894c0.456-0.319,0.797-0.776,0.973-1.304
			c0.156-0.512,0.235-1.044,0.232-1.579H189.316z M190.779,412.684c0.022-0.78-0.135-1.556-0.459-2.265
			c-0.316-0.634-0.807-1.165-1.414-1.53c-0.755-0.439-1.585-0.736-2.448-0.875c-1.176-0.202-2.369-0.296-3.562-0.281h-10.955v9.504
			h11.242c1.2,0.017,2.4-0.064,3.586-0.245c0.823-0.114,1.616-0.385,2.338-0.795c0.563-0.33,1.01-0.826,1.279-1.42
			c0.266-0.665,0.391-1.378,0.367-2.093H190.779z"/>
		<path fill="#1C1C1C" d="M227.052,407.499c0.049,1.878-0.341,3.74-1.138,5.441c-0.73,1.491-1.804,2.787-3.133,3.782
			c-1.41,1.031-3.006,1.779-4.7,2.203c-1.907,0.489-3.87,0.73-5.838,0.716c-1.981,0.015-3.956-0.226-5.875-0.716
			c-1.704-0.425-3.31-1.173-4.73-2.203c-1.338-0.991-2.419-2.288-3.152-3.782c-0.797-1.701-1.187-3.563-1.138-5.441
			c-0.016-1.288,0.161-2.57,0.526-3.807c0.329-1.091,0.829-2.124,1.481-3.06c0.635-0.902,1.415-1.694,2.307-2.344
			c0.93-0.675,1.941-1.228,3.011-1.646c1.151-0.45,2.347-0.776,3.568-0.973c1.323-0.215,2.662-0.322,4.002-0.318
			c1.969-0.014,3.931,0.226,5.838,0.716c1.694,0.424,3.291,1.172,4.7,2.203c1.329,0.995,2.403,2.291,3.133,3.782
			C226.711,403.755,227.102,405.62,227.052,407.499z M224.873,407.499c0.03-1.504-0.245-2.998-0.808-4.394
			c-0.522-1.251-1.344-2.354-2.393-3.213c-1.165-0.925-2.509-1.598-3.947-1.977c-3.604-0.903-7.375-0.903-10.979,0
			c-1.446,0.385-2.8,1.059-3.978,1.982c-1.069,0.854-1.91,1.96-2.448,3.219c-1.09,2.82-1.09,5.944,0,8.765
			c0.539,1.256,1.379,2.36,2.448,3.213c1.177,0.924,2.531,1.597,3.978,1.977c3.605,0.897,7.375,0.897,10.979,0
			c1.438-0.38,2.782-1.053,3.947-1.977c1.049-0.859,1.871-1.963,2.393-3.213C224.626,410.49,224.901,409,224.873,407.499z"/>
		<path fill="#1C1C1C" d="M254.396,419.183l-3.219-6.182h-15.912l-3.219,6.182h-2.332l12.24-23.403h2.503l12.24,23.403H254.396z
			 M243.239,397.836l-6.916,13.22h13.813L243.239,397.836z"/>
		<path fill="#1C1C1C" d="M263.454,409.164v10.019h-2.129V395.78h11.628c1.538-0.024,3.075,0.116,4.583,0.417
			c1.115,0.213,2.177,0.642,3.127,1.261c0.778,0.521,1.395,1.251,1.781,2.104c0.393,0.931,0.584,1.935,0.563,2.944
			c0.08,1.521-0.412,3.019-1.377,4.198c-0.918,1.048-2.399,1.767-4.443,2.154l8.005,10.324h-2.674l-7.552-10.086
			c-0.318,0.024-0.643,0.041-0.973,0.049h-1.022L263.454,409.164z M280.847,402.506c0.04-0.848-0.142-1.691-0.526-2.448
			c-0.397-0.657-1.002-1.163-1.72-1.438c-1.001-0.389-2.056-0.621-3.127-0.691c-1.29-0.118-2.873-0.178-4.75-0.178h-7.271v9.4h7.197
			c1.877,0,3.462-0.053,4.755-0.159c1.078-0.062,2.141-0.286,3.152-0.667c0.715-0.261,1.326-0.749,1.738-1.389
			c0.394-0.748,0.582-1.586,0.545-2.43H280.847z"/>
		<path fill="#1C1C1C" d="M315.933,407.463c0.018,1.347-0.141,2.69-0.471,3.996c-0.273,1.085-0.72,2.118-1.322,3.061
			c-0.554,0.849-1.255,1.593-2.068,2.196c-0.827,0.611-1.738,1.101-2.705,1.451c-1.049,0.376-2.134,0.641-3.237,0.789
			c-1.217,0.167-2.444,0.249-3.672,0.245h-12.075V395.78h12.044c1.798-0.013,3.593,0.176,5.349,0.563
			c1.547,0.33,3.007,0.982,4.284,1.915c1.239,0.941,2.218,2.182,2.846,3.605C315.643,403.635,315.993,405.544,315.933,407.463z
			 M313.754,407.463c0.017-1.138-0.109-2.272-0.373-3.378c-0.217-0.901-0.579-1.761-1.071-2.546
			c-0.449-0.714-1.028-1.337-1.707-1.837c-0.696-0.502-1.461-0.902-2.271-1.187c-0.89-0.304-1.809-0.509-2.742-0.612
			c-1.045-0.129-2.098-0.192-3.152-0.189h-9.902v19.522h9.92c1.54,0.013,3.076-0.139,4.583-0.453
			c1.289-0.258,2.506-0.793,3.568-1.566c1.022-0.781,1.823-1.814,2.325-2.999c0.599-1.509,0.878-3.126,0.82-4.749V407.463z"/>
		<path fill="#1C1C1C" d="M324.262,409.164v10.019h-2.129V395.78h11.628c1.538-0.024,3.074,0.116,4.583,0.417
			c1.115,0.213,2.177,0.642,3.128,1.261c0.778,0.521,1.395,1.251,1.78,2.104c0.394,0.931,0.585,1.935,0.563,2.944
			c0.08,1.521-0.411,3.019-1.377,4.198c-0.918,1.048-2.399,1.767-4.443,2.154l7.987,10.324h-2.65l-7.559-10.086
			c-0.318,0.024-0.643,0.041-0.973,0.049h-1.022L324.262,409.164z M341.655,402.506c0.04-0.848-0.142-1.691-0.526-2.448
			c-0.397-0.657-1.003-1.163-1.72-1.438c-1.001-0.389-2.056-0.621-3.127-0.691c-1.29-0.118-2.873-0.178-4.75-0.178h-7.271v9.4h7.197
			c1.877,0,3.462-0.053,4.756-0.159c1.078-0.062,2.141-0.286,3.151-0.667c0.724-0.265,1.339-0.762,1.75-1.413
			c0.386-0.741,0.569-1.571,0.533-2.405H341.655z"/>
		<path fill="#1C1C1C" d="M378.92,407.499c0.048,1.878-0.342,3.74-1.139,5.441c-0.73,1.491-1.804,2.787-3.133,3.782
			c-1.41,1.031-3.006,1.779-4.7,2.203c-1.907,0.489-3.87,0.73-5.839,0.716c-1.98,0.015-3.956-0.226-5.875-0.716
			c-1.704-0.425-3.31-1.173-4.73-2.203c-1.339-0.991-2.419-2.288-3.152-3.782c-0.797-1.701-1.187-3.563-1.139-5.441
			c-0.016-1.288,0.162-2.57,0.526-3.807c0.329-1.091,0.829-2.124,1.481-3.06c0.635-0.902,1.415-1.694,2.308-2.344
			c0.93-0.675,1.941-1.228,3.011-1.646c1.151-0.45,2.348-0.776,3.568-0.973c1.322-0.215,2.661-0.322,4.002-0.318
			c1.969-0.014,3.932,0.226,5.839,0.716c1.694,0.424,3.29,1.172,4.7,2.203c1.329,0.995,2.402,2.291,3.133,3.782
			C378.579,403.755,378.969,405.62,378.92,407.499z M376.741,407.499c0.029-1.504-0.245-2.998-0.808-4.394
			c-0.523-1.251-1.345-2.354-2.394-3.213c-1.165-0.925-2.509-1.598-3.947-1.977c-3.604-0.903-7.375-0.903-10.979,0
			c-1.446,0.385-2.8,1.059-3.978,1.982c-1.069,0.854-1.911,1.96-2.448,3.219c-1.09,2.82-1.09,5.944,0,8.765
			c0.539,1.256,1.38,2.36,2.448,3.213c1.177,0.924,2.53,1.597,3.978,1.977c3.605,0.897,7.375,0.897,10.979,0
			c1.438-0.38,2.782-1.053,3.947-1.977c1.049-0.859,1.87-1.963,2.394-3.213C376.494,410.49,376.769,409,376.741,407.499z"/>
		<path fill="#1C1C1C" d="M413.241,407.499c0.048,1.878-0.342,3.74-1.139,5.441c-0.73,1.491-1.805,2.787-3.134,3.782
			c-1.409,1.031-3.006,1.779-4.7,2.203c-1.907,0.489-3.869,0.73-5.838,0.716c-1.981,0.015-3.956-0.226-5.876-0.716
			c-1.703-0.425-3.31-1.173-4.73-2.203c-1.338-0.991-2.419-2.288-3.151-3.782c-0.798-1.701-1.188-3.563-1.139-5.441
			c-0.016-1.288,0.162-2.57,0.526-3.807c0.329-1.091,0.829-2.124,1.481-3.06c0.635-0.902,1.414-1.694,2.307-2.344
			c0.93-0.675,1.941-1.228,3.012-1.646c1.151-0.45,2.347-0.776,3.567-0.973c1.323-0.215,2.662-0.322,4.003-0.318
			c1.969-0.014,3.931,0.226,5.838,0.716c1.694,0.424,3.291,1.172,4.7,2.203c1.329,0.995,2.403,2.291,3.134,3.782
			C412.9,403.755,413.29,405.62,413.241,407.499z M411.063,407.499c0.029-1.504-0.246-2.998-0.809-4.394
			c-0.522-1.251-1.344-2.354-2.393-3.213c-1.165-0.925-2.51-1.598-3.947-1.977c-3.604-0.903-7.375-0.903-10.979,0
			c-1.446,0.385-2.8,1.059-3.978,1.982c-1.07,0.854-1.911,1.96-2.448,3.219c-1.091,2.82-1.091,5.944,0,8.765
			c0.538,1.256,1.379,2.36,2.448,3.213c1.177,0.924,2.53,1.597,3.978,1.977c3.604,0.897,7.375,0.897,10.979,0
			c1.438-0.38,2.782-1.053,3.947-1.977c1.049-0.859,1.87-1.963,2.393-3.213C410.815,410.49,411.09,409,411.063,407.499z"/>
		<path fill="#1C1C1C" d="M449.251,419.183v-19.915l-12.853,19.915h-1.879l-12.852-19.994v19.994h-2.13V395.78h2.283l13.727,21.206
			l13.574-21.206h2.265v23.403H449.251z"/>
		<path fill="#F05C40" d="M457.035,419.183v-3.672h2.963v3.672H457.035z"/>
		<path fill="#666666" d="M495.444,419.183v-19.915l-12.852,19.915h-1.892l-12.852-19.994v19.994h-2.13V395.78h2.283l13.727,21.206
			l13.574-21.206h2.252v23.403H495.444z"/>
		<path fill="#666666" d="M505.427,419.183V395.78h19.504v1.995h-17.191v8.061h16.316v1.939h-16.316v9.419h17.442v1.995
			L505.427,419.183z"/>
		<path fill="#666666" d="M557.312,407.463c0.018,1.347-0.141,2.69-0.471,3.996c-0.273,1.085-0.72,2.118-1.322,3.061
			c-0.554,0.849-1.255,1.593-2.068,2.196c-0.827,0.611-1.738,1.101-2.705,1.451c-1.049,0.376-2.134,0.641-3.237,0.789
			c-1.217,0.167-2.444,0.249-3.672,0.245h-12.075V395.78h12.044c1.799-0.013,3.593,0.176,5.349,0.563
			c1.548,0.33,3.007,0.982,4.284,1.915c1.239,0.941,2.218,2.182,2.846,3.605C557.021,403.635,557.372,405.544,557.312,407.463z
			 M555.133,407.463c0.017-1.138-0.109-2.272-0.373-3.378c-0.217-0.901-0.579-1.761-1.071-2.546
			c-0.449-0.714-1.028-1.337-1.707-1.837c-0.696-0.502-1.461-0.902-2.271-1.187c-0.89-0.304-1.809-0.509-2.742-0.612
			c-1.045-0.129-2.098-0.192-3.151-0.189h-9.927v19.522h9.92c1.54,0.013,3.077-0.139,4.584-0.453
			c1.289-0.258,2.506-0.793,3.568-1.566c1.022-0.781,1.823-1.814,2.325-2.999c0.604-1.508,0.891-3.125,0.839-4.749L555.133,407.463z
			"/>
		<path fill="#666666" d="M563.512,419.183V395.78h2.129v23.403H563.512z"/>
		<path fill="#666666" d="M594.962,419.183l-3.219-6.182h-15.912l-3.22,6.182h-2.331l12.239-23.403h2.553l12.24,23.403H594.962z
			 M583.805,397.836l-6.915,13.22h13.813L583.805,397.836z"/>
	</g>
</g>
</svg>
