<?xml version="1.0" encoding="utf-8"?>
<!-- Generator: Adobe Illustrator 16.0.0, SVG Export Plug-In . SVG Version: 6.00 Build 0)  -->
<!DOCTYPE svg PUBLIC "-//W3C//DTD SVG 1.1//EN" "http://www.w3.org/Graphics/SVG/1.1/DTD/svg11.dtd">
<svg version="1.1" id="Layer_1" xmlns="http://www.w3.org/2000/svg" xmlns:xlink="http://www.w3.org/1999/xlink" x="0px" y="0px"
	 width="612px" height="792px" viewBox="0 0 612 792" enable-background="new 0 0 612 792" xml:space="preserve">
<title>Asset 1</title>
<g id="Layer_2">
	<g id="Layer_1-2">
		<rect y="229.949" fill="#FFFFFF" stroke="#FFFFFF" stroke-miterlimit="10" width="612" height="226.44"/>
		<path fill="#333333" stroke="#333333" stroke-miterlimit="10" d="M54.187,329.405L54.187,329.405L54.187,329.405v9.511
			l8.268-4.773l66.757,38.556l8.103-4.676l-83.128-47.976V329.405z M54.187,301.13v9.357l0,0l0,0v9.547l8.268-4.773l83.14,47.999
			l8.103-4.682L54.187,301.13z"/>
		<polygon fill="#FFFFFF" stroke="#F70047" stroke-miterlimit="10" points="54.187,348.315 71.922,358.56 54.187,368.799 		"/>
		<path fill="#F05C40" stroke="#F05C40" stroke-miterlimit="10" d="M120.895,377.471l-66.708-38.525V270.34l-8.103-4.706v107.871
			l-32.76,18.879v9.365l66.708-38.514l0,0l32.772,18.917L120.895,377.471z M71.935,358.554l-17.748,10.238v-20.478L71.935,358.554z"
			/>
		<polygon fill="#FFFFFF" stroke="#F05C40" stroke-miterlimit="10" points="71.928,358.56 54.187,348.315 54.187,348.315 
			71.922,358.56 		"/>
		<polygon fill="#333333" stroke="#333333" stroke-miterlimit="10" points="46.083,373.475 46.059,373.493 37.803,368.725 
			37.803,260.891 29.7,256.215 29.7,382.936 29.676,382.949 21.426,378.187 21.426,251.436 13.323,246.753 13.323,392.385 
			46.083,373.505 		"/>
		<polygon fill="#FFFFFF" stroke="#F70047" stroke-miterlimit="10" points="21.426,387.717 21.426,387.717 21.426,387.717 		"/>
		<polygon fill="#F05C40" stroke="#F05C40" stroke-miterlimit="10" points="37.803,378.254 37.803,378.249 37.81,378.249 		"/>
		<polygon fill="#333333" stroke="#333333" stroke-miterlimit="10" points="112.798,382.147 80.025,363.23 80.025,363.236 
			80.025,372.795 13.323,411.309 13.323,420.666 96.408,372.698 96.408,382.25 13.323,430.225 13.323,439.582 		"/>
		<path fill="#1C1C1C" stroke="#1C1C1C" stroke-miterlimit="10" d="M192.988,359.894c0.017,0.805-0.103,1.605-0.355,2.369
			c-0.218,0.636-0.557,1.224-0.998,1.731c-0.43,0.486-0.95,0.885-1.53,1.175c-0.625,0.313-1.285,0.553-1.964,0.717
			c-0.756,0.183-1.526,0.306-2.301,0.367c-0.816,0.069-1.663,0.104-2.54,0.104h-13.513v-23.408h13.201
			c0.669,0,1.338,0.027,2.007,0.085c0.652,0.056,1.299,0.161,1.934,0.318c0.595,0.137,1.172,0.342,1.72,0.612
			c0.522,0.268,0.989,0.631,1.377,1.07c0.407,0.471,0.718,1.016,0.918,1.604c0.235,0.715,0.347,1.464,0.331,2.216
			c0.014,0.67-0.082,1.337-0.281,1.977c-0.174,0.535-0.464,1.024-0.851,1.433c-0.415,0.42-0.91,0.753-1.457,0.979
			c-0.667,0.281-1.362,0.486-2.075,0.612c0.994,0.052,1.976,0.247,2.913,0.581c0.739,0.263,1.413,0.681,1.977,1.225
			c0.514,0.515,0.9,1.144,1.126,1.836C192.877,358.27,192.999,359.081,192.988,359.894z M189.316,348.927
			c0-0.329-0.022-0.659-0.067-0.985c-0.045-0.329-0.149-0.648-0.306-0.942c-0.177-0.319-0.411-0.604-0.692-0.839
			c-0.364-0.294-0.779-0.52-1.224-0.667c-0.628-0.211-1.276-0.358-1.934-0.44c-0.917-0.116-1.842-0.169-2.766-0.159h-10.41v8.14
			h10.374c1.232,0.028,2.464-0.082,3.672-0.33c0.761-0.151,1.483-0.455,2.124-0.894c0.456-0.319,0.797-0.776,0.973-1.304
			c0.156-0.512,0.235-1.044,0.232-1.579H189.316z M190.779,359.852c0.022-0.78-0.135-1.556-0.459-2.265
			c-0.316-0.634-0.807-1.165-1.414-1.53c-0.755-0.439-1.585-0.736-2.448-0.875c-1.176-0.202-2.369-0.296-3.562-0.281h-10.955v9.504
			h11.242c1.2,0.017,2.4-0.064,3.586-0.245c0.823-0.114,1.616-0.385,2.338-0.795c0.563-0.33,1.01-0.826,1.279-1.42
			c0.266-0.665,0.391-1.378,0.367-2.093H190.779z"/>
		<path fill="#1C1C1C" stroke="#1C1C1C" stroke-miterlimit="10" d="M227.052,354.667c0.049,1.878-0.341,3.74-1.138,5.441
			c-0.73,1.491-1.804,2.787-3.133,3.782c-1.41,1.031-3.006,1.779-4.7,2.203c-1.907,0.489-3.87,0.73-5.838,0.716
			c-1.981,0.015-3.956-0.226-5.875-0.716c-1.704-0.425-3.31-1.173-4.73-2.203c-1.338-0.991-2.419-2.288-3.152-3.782
			c-0.797-1.701-1.187-3.563-1.138-5.441c-0.016-1.288,0.161-2.57,0.526-3.807c0.329-1.091,0.829-2.124,1.481-3.06
			c0.635-0.902,1.415-1.694,2.307-2.344c0.93-0.675,1.941-1.228,3.011-1.646c1.151-0.45,2.347-0.776,3.568-0.974
			c1.323-0.215,2.662-0.321,4.002-0.318c1.969-0.014,3.931,0.227,5.838,0.717c1.694,0.424,3.291,1.172,4.7,2.203
			c1.329,0.995,2.403,2.291,3.133,3.782C226.711,350.923,227.102,352.789,227.052,354.667z M224.873,354.667
			c0.03-1.504-0.245-2.998-0.808-4.394c-0.522-1.251-1.344-2.354-2.393-3.213c-1.165-0.925-2.509-1.598-3.947-1.977
			c-3.604-0.903-7.375-0.903-10.979,0c-1.446,0.385-2.8,1.059-3.978,1.982c-1.069,0.854-1.91,1.96-2.448,3.219
			c-1.09,2.82-1.09,5.944,0,8.765c0.539,1.256,1.379,2.36,2.448,3.213c1.177,0.924,2.531,1.597,3.978,1.977
			c3.605,0.897,7.375,0.897,10.979,0c1.438-0.38,2.782-1.053,3.947-1.977c1.049-0.859,1.871-1.963,2.393-3.213
			C224.626,357.659,224.901,356.168,224.873,354.667z"/>
		<path fill="#1C1C1C" stroke="#1C1C1C" stroke-miterlimit="10" d="M254.396,366.351l-3.219-6.182h-15.912l-3.219,6.182h-2.332
			l12.24-23.402h2.503l12.24,23.402H254.396z M243.239,345.004l-6.916,13.22h13.813L243.239,345.004z"/>
		<path fill="#1C1C1C" stroke="#1C1C1C" stroke-miterlimit="10" d="M263.454,356.333v10.019h-2.129v-23.402h11.628
			c1.538-0.024,3.075,0.115,4.583,0.416c1.115,0.213,2.177,0.642,3.127,1.261c0.778,0.521,1.395,1.251,1.781,2.104
			c0.393,0.931,0.584,1.935,0.563,2.944c0.08,1.521-0.412,3.019-1.377,4.198c-0.918,1.048-2.399,1.767-4.443,2.154l8.005,10.324
			h-2.674l-7.552-10.086c-0.318,0.024-0.643,0.041-0.973,0.049h-1.022L263.454,356.333z M280.847,349.674
			c0.04-0.848-0.142-1.691-0.526-2.448c-0.397-0.657-1.002-1.163-1.72-1.438c-1.001-0.389-2.056-0.621-3.127-0.691
			c-1.29-0.118-2.873-0.178-4.75-0.178h-7.271v9.4h7.197c1.877,0,3.462-0.053,4.755-0.159c1.078-0.062,2.141-0.286,3.152-0.667
			c0.715-0.261,1.326-0.749,1.738-1.389c0.394-0.748,0.582-1.586,0.545-2.43H280.847z"/>
		<path fill="#1C1C1C" stroke="#1C1C1C" stroke-miterlimit="10" d="M315.932,354.631c0.018,1.347-0.141,2.69-0.471,3.996
			c-0.273,1.085-0.719,2.118-1.322,3.061c-0.553,0.849-1.254,1.593-2.068,2.196c-0.826,0.611-1.738,1.101-2.705,1.451
			c-1.049,0.376-2.133,0.641-3.237,0.789c-1.217,0.167-2.444,0.249-3.672,0.245h-12.074v-23.421h12.044
			c1.798-0.014,3.593,0.176,5.348,0.563c1.547,0.33,3.008,0.982,4.285,1.915c1.238,0.941,2.217,2.182,2.846,3.605
			C315.643,350.803,315.992,352.712,315.932,354.631z M313.754,354.631c0.016-1.138-0.109-2.272-0.373-3.378
			c-0.217-0.901-0.58-1.761-1.072-2.546c-0.449-0.714-1.027-1.337-1.707-1.837c-0.695-0.502-1.461-0.902-2.27-1.187
			c-0.891-0.304-1.809-0.509-2.742-0.612c-1.046-0.129-2.099-0.192-3.151-0.189h-9.902v19.522h9.92
			c1.54,0.013,3.076-0.139,4.583-0.453c1.289-0.258,2.506-0.793,3.568-1.566c1.023-0.781,1.824-1.814,2.326-2.999
			c0.598-1.509,0.877-3.126,0.82-4.749V354.631z"/>
		<path fill="#1C1C1C" stroke="#1C1C1C" stroke-miterlimit="10" d="M324.262,356.333v10.019h-2.129v-23.402h11.627
			c1.539-0.024,3.074,0.115,4.584,0.416c1.115,0.213,2.176,0.642,3.127,1.261c0.779,0.521,1.395,1.251,1.781,2.104
			c0.393,0.931,0.584,1.935,0.563,2.944c0.08,1.521-0.41,3.019-1.377,4.198c-0.918,1.048-2.398,1.767-4.443,2.154l7.988,10.324
			h-2.65l-7.559-10.086c-0.318,0.024-0.643,0.041-0.973,0.049h-1.023L324.262,356.333z M341.654,349.674
			c0.041-0.848-0.141-1.691-0.525-2.448c-0.398-0.657-1.004-1.163-1.721-1.438c-1-0.389-2.055-0.621-3.127-0.691
			c-1.289-0.118-2.873-0.178-4.75-0.178h-7.27v9.4h7.197c1.877,0,3.461-0.053,4.756-0.159c1.078-0.062,2.141-0.286,3.15-0.667
			c0.725-0.265,1.34-0.762,1.75-1.413c0.387-0.741,0.57-1.571,0.533-2.405H341.654z"/>
		<path fill="#1C1C1C" stroke="#1C1C1C" stroke-miterlimit="10" d="M378.92,354.667c0.047,1.878-0.342,3.74-1.139,5.441
			c-0.73,1.491-1.805,2.787-3.133,3.782c-1.41,1.031-3.006,1.779-4.701,2.203c-1.906,0.489-3.869,0.73-5.838,0.716
			c-1.98,0.015-3.957-0.226-5.875-0.716c-1.705-0.425-3.311-1.173-4.73-2.203c-1.34-0.991-2.42-2.288-3.152-3.782
			c-0.797-1.701-1.188-3.563-1.139-5.441c-0.016-1.288,0.162-2.57,0.525-3.807c0.33-1.091,0.83-2.124,1.482-3.06
			c0.635-0.902,1.414-1.694,2.307-2.344c0.93-0.675,1.941-1.228,3.012-1.646c1.15-0.45,2.348-0.776,3.568-0.974
			c1.322-0.215,2.66-0.321,4.002-0.318c1.969-0.014,3.932,0.227,5.838,0.717c1.695,0.424,3.291,1.172,4.701,2.203
			c1.328,0.995,2.402,2.291,3.133,3.782C378.578,350.923,378.969,352.789,378.92,354.667z M376.74,354.667
			c0.029-1.504-0.244-2.998-0.807-4.394c-0.523-1.251-1.346-2.354-2.395-3.213c-1.164-0.925-2.508-1.598-3.947-1.977
			c-3.604-0.903-7.375-0.903-10.979,0c-1.447,0.385-2.801,1.059-3.979,1.982c-1.068,0.854-1.91,1.96-2.447,3.219
			c-1.09,2.82-1.09,5.944,0,8.765c0.539,1.256,1.379,2.36,2.447,3.213c1.178,0.924,2.531,1.597,3.979,1.977
			c3.605,0.897,7.375,0.897,10.979,0c1.439-0.38,2.783-1.053,3.947-1.977c1.049-0.859,1.871-1.963,2.395-3.213
			C376.494,357.659,376.768,356.168,376.74,354.667z"/>
		<path fill="#1C1C1C" stroke="#1C1C1C" stroke-miterlimit="10" d="M413.24,354.667c0.049,1.878-0.342,3.74-1.139,5.441
			c-0.73,1.491-1.805,2.787-3.133,3.782c-1.41,1.031-3.006,1.779-4.701,2.203c-1.906,0.489-3.869,0.73-5.838,0.716
			c-1.98,0.015-3.955-0.226-5.875-0.716c-1.703-0.425-3.311-1.173-4.73-2.203c-1.338-0.991-2.42-2.288-3.152-3.782
			c-0.797-1.701-1.188-3.563-1.139-5.441c-0.016-1.288,0.162-2.57,0.527-3.807c0.328-1.091,0.828-2.124,1.48-3.06
			c0.635-0.902,1.414-1.694,2.307-2.344c0.93-0.675,1.941-1.228,3.012-1.646c1.152-0.45,2.348-0.776,3.568-0.974
			c1.322-0.215,2.662-0.321,4.002-0.318c1.969-0.014,3.932,0.227,5.838,0.717c1.695,0.424,3.291,1.172,4.701,2.203
			c1.328,0.995,2.402,2.291,3.133,3.782C412.9,350.923,413.289,352.789,413.24,354.667z M411.063,354.667
			c0.029-1.504-0.246-2.998-0.809-4.394c-0.523-1.251-1.344-2.354-2.393-3.213c-1.166-0.925-2.51-1.598-3.947-1.977
			c-3.605-0.903-7.375-0.903-10.98,0c-1.445,0.385-2.799,1.059-3.977,1.982c-1.07,0.854-1.912,1.96-2.449,3.219
			c-1.09,2.82-1.09,5.944,0,8.765c0.539,1.256,1.379,2.36,2.449,3.213c1.176,0.924,2.529,1.597,3.977,1.977
			c3.605,0.897,7.375,0.897,10.98,0c1.438-0.38,2.781-1.053,3.947-1.977c1.049-0.859,1.869-1.963,2.393-3.213
			C410.814,357.659,411.09,356.168,411.063,354.667z"/>
		<path fill="#1C1C1C" stroke="#1C1C1C" stroke-miterlimit="10" d="M449.25,366.351v-19.915l-12.852,19.915h-1.879l-12.852-19.994
			v19.994h-2.131v-23.402h2.283l13.727,21.205l13.574-21.205h2.266v23.402H449.25z"/>
		<path fill="#F05C40" stroke="#F05C40" stroke-miterlimit="10" d="M457.035,366.351v-3.672h2.963v3.672H457.035z"/>
		<path fill="#666666" stroke="#666666" stroke-miterlimit="10" d="M495.443,366.351v-19.915l-12.852,19.915h-1.891l-12.852-19.994
			v19.994h-2.131v-23.402h2.283l13.727,21.205l13.574-21.205h2.252v23.402H495.443z"/>
		<path fill="#666666" stroke="#666666" stroke-miterlimit="10" d="M505.426,366.351v-23.402h19.504v1.994h-17.191v8.061h16.316
			v1.939h-16.316v9.419h17.443v1.995L505.426,366.351z"/>
		<path fill="#666666" stroke="#666666" stroke-miterlimit="10" d="M557.311,354.631c0.018,1.347-0.141,2.69-0.471,3.996
			c-0.273,1.085-0.719,2.118-1.322,3.061c-0.553,0.849-1.254,1.593-2.068,2.196c-0.826,0.611-1.738,1.101-2.705,1.451
			c-1.049,0.376-2.133,0.641-3.236,0.789c-1.217,0.167-2.445,0.249-3.672,0.245H531.76v-23.421h12.045
			c1.799-0.014,3.592,0.176,5.348,0.563c1.549,0.33,3.008,0.982,4.285,1.915c1.238,0.941,2.217,2.182,2.846,3.605
			C557.021,350.803,557.371,352.712,557.311,354.631z M555.133,354.631c0.016-1.138-0.109-2.272-0.373-3.378
			c-0.217-0.901-0.58-1.761-1.072-2.546c-0.449-0.714-1.027-1.337-1.707-1.837c-0.695-0.502-1.461-0.902-2.27-1.187
			c-0.891-0.304-1.809-0.509-2.742-0.612c-1.045-0.129-2.098-0.192-3.152-0.189h-9.926v19.522h9.92
			c1.539,0.013,3.076-0.139,4.584-0.453c1.289-0.258,2.506-0.793,3.568-1.566c1.021-0.781,1.822-1.814,2.324-2.999
			c0.605-1.508,0.891-3.125,0.84-4.749L555.133,354.631z"/>
		<path fill="#666666" stroke="#666666" stroke-miterlimit="10" d="M563.512,366.351v-23.402h2.129v23.402H563.512z"/>
		<path fill="#666666" stroke="#666666" stroke-miterlimit="10" d="M594.961,366.351l-3.219-6.182H575.83l-3.219,6.182h-2.332
			l12.24-23.402h2.553l12.24,23.402H594.961z M583.805,345.004l-6.916,13.22h13.813L583.805,345.004z"/>
	</g>
</g>
</svg>
